<svg xmlns="http://www.w3.org/2000/svg" xmlns:xlink="http://www.w3.org/1999/xlink" width="357" zoomAndPan="magnify" viewBox="0 0 267.75 92.999996" height="124" preserveAspectRatio="xMidYMid meet" version="1.0"><defs><g/></defs><g fill="#e1efed" fill-opacity="1"><g transform="translate(20.063364, 40.396229)"><g><path d="M 27.03125 -15.484375 L 27.03125 -9.484375 C 26.3125 -6.203125 24.742188 -3.71875 22.328125 -2.03125 C 19.910156 -0.34375 17.21875 0.5 14.25 0.5 C 10.519531 0.5 7.335938 -0.894531 4.703125 -3.6875 C 2.078125 -6.476562 0.765625 -9.851562 0.765625 -13.8125 C 0.765625 -17.832031 2.050781 -21.226562 4.625 -24 C 7.195312 -26.78125 10.40625 -28.171875 14.25 -28.171875 C 18.738281 -28.171875 22.289062 -26.59375 24.90625 -23.4375 L 20.796875 -18.90625 C 19.316406 -21.28125 17.257812 -22.46875 14.625 -22.46875 C 12.675781 -22.46875 11.015625 -21.625 9.640625 -19.9375 C 8.265625 -18.25 7.578125 -16.207031 7.578125 -13.8125 C 7.578125 -11.46875 8.265625 -9.460938 9.640625 -7.796875 C 11.015625 -6.128906 12.675781 -5.296875 14.625 -5.296875 C 16.226562 -5.296875 17.628906 -5.78125 18.828125 -6.75 C 20.023438 -7.726562 20.625 -9.019531 20.625 -10.625 L 14.25 -10.625 L 14.25 -15.484375 Z M 27.03125 -15.484375 "/></g></g></g><g fill="#e1efed" fill-opacity="1"><g transform="translate(46.677666, 40.396229)"><g><path d="M 0.765625 -13.84375 C 0.765625 -17.84375 2.128906 -21.226562 4.859375 -24 C 7.585938 -26.78125 10.875 -28.171875 14.71875 -28.171875 C 18.582031 -28.171875 21.867188 -26.789062 24.578125 -24.03125 C 27.285156 -21.269531 28.640625 -17.875 28.640625 -13.84375 C 28.640625 -9.800781 27.304688 -6.398438 24.640625 -3.640625 C 21.984375 -0.878906 18.675781 0.5 14.71875 0.5 C 10.675781 0.5 7.335938 -0.867188 4.703125 -3.609375 C 2.078125 -6.347656 0.765625 -9.757812 0.765625 -13.84375 Z M 7.578125 -13.84375 C 7.578125 -12.394531 7.800781 -11.070312 8.25 -9.875 C 8.695312 -8.675781 9.476562 -7.660156 10.59375 -6.828125 C 11.707031 -6.003906 13.082031 -5.59375 14.71875 -5.59375 C 17.0625 -5.59375 18.832031 -6.394531 20.03125 -8 C 21.226562 -9.613281 21.828125 -11.5625 21.828125 -13.84375 C 21.828125 -16.101562 21.21875 -18.039062 20 -19.65625 C 18.78125 -21.28125 17.019531 -22.09375 14.71875 -22.09375 C 12.4375 -22.09375 10.675781 -21.28125 9.4375 -19.65625 C 8.195312 -18.039062 7.578125 -16.101562 7.578125 -13.84375 Z M 7.578125 -13.84375 "/></g></g></g><g fill="#e1efed" fill-opacity="1"><g transform="translate(74.900902, 40.396229)"><g><path d="M 8.3125 -27.65625 L 8.3125 -5.53125 L 17.84375 -5.53125 L 17.84375 0 L 2.015625 0 L 2.015625 -27.65625 Z M 8.3125 -27.65625 "/></g></g></g><g fill="#e1efed" fill-opacity="1"><g transform="translate(92.66604, 40.396229)"><g><path d="M 2.015625 -27.65625 L 10.03125 -27.65625 C 13.875 -27.65625 17.15625 -26.34375 19.875 -23.71875 C 22.601562 -21.09375 23.96875 -17.800781 23.96875 -13.84375 C 23.96875 -9.863281 22.609375 -6.5625 19.890625 -3.9375 C 17.179688 -1.3125 13.894531 0 10.03125 0 L 2.015625 0 Z M 8.3125 -5.640625 L 9.28125 -5.640625 C 11.582031 -5.640625 13.46875 -6.414062 14.9375 -7.96875 C 16.40625 -9.519531 17.148438 -11.46875 17.171875 -13.8125 C 17.171875 -16.15625 16.4375 -18.109375 14.96875 -19.671875 C 13.507812 -21.242188 11.613281 -22.03125 9.28125 -22.03125 L 8.3125 -22.03125 Z M 8.3125 -5.640625 "/></g></g></g><g fill="#e1efed" fill-opacity="1"><g transform="translate(116.230053, 40.396229)"><g><path d="M 17.84375 -27.65625 L 17.84375 -22.125 L 8.3125 -22.125 L 8.3125 -16.625 L 17.4375 -16.625 L 17.4375 -11.09375 L 8.3125 -11.09375 L 8.3125 -5.53125 L 17.84375 -5.53125 L 17.84375 0 L 2.015625 0 L 2.015625 -27.65625 Z M 17.84375 -27.65625 "/></g></g></g><g fill="#e1efed" fill-opacity="1"><g transform="translate(134.497988, 40.396229)"><g><path d="M 8.3125 -17.171875 L 8.3125 0 L 2.015625 0 L 2.015625 -27.65625 L 8.3125 -27.65625 L 19.3125 -10.5 L 19.375 -10.5 L 19.375 -27.65625 L 25.6875 -27.65625 L 25.6875 0 L 19.375 0 L 8.375 -17.171875 Z M 8.3125 -17.171875 "/></g></g></g><g fill="#e1efed" fill-opacity="1"><g transform="translate(161.011736, 40.396229)"><g><path d="M 2.015625 -27.65625 L 10.03125 -27.65625 C 13.875 -27.65625 17.15625 -26.34375 19.875 -23.71875 C 22.601562 -21.09375 23.96875 -17.800781 23.96875 -13.84375 C 23.96875 -9.863281 22.609375 -6.5625 19.890625 -3.9375 C 17.179688 -1.3125 13.894531 0 10.03125 0 L 2.015625 0 Z M 8.3125 -5.640625 L 9.28125 -5.640625 C 11.582031 -5.640625 13.46875 -6.414062 14.9375 -7.96875 C 16.40625 -9.519531 17.148438 -11.46875 17.171875 -13.8125 C 17.171875 -16.15625 16.4375 -18.109375 14.96875 -19.671875 C 13.507812 -21.242188 11.613281 -22.03125 9.28125 -22.03125 L 8.3125 -22.03125 Z M 8.3125 -5.640625 "/></g></g></g><g fill="#e1efed" fill-opacity="1"><g transform="translate(184.575755, 40.396229)"><g><path d="M 0.765625 -13.84375 C 0.765625 -17.84375 2.128906 -21.226562 4.859375 -24 C 7.585938 -26.78125 10.875 -28.171875 14.71875 -28.171875 C 18.582031 -28.171875 21.867188 -26.789062 24.578125 -24.03125 C 27.285156 -21.269531 28.640625 -17.875 28.640625 -13.84375 C 28.640625 -9.800781 27.304688 -6.398438 24.640625 -3.640625 C 21.984375 -0.878906 18.675781 0.5 14.71875 0.5 C 10.675781 0.5 7.335938 -0.867188 4.703125 -3.609375 C 2.078125 -6.347656 0.765625 -9.757812 0.765625 -13.84375 Z M 7.578125 -13.84375 C 7.578125 -12.394531 7.800781 -11.070312 8.25 -9.875 C 8.695312 -8.675781 9.476562 -7.660156 10.59375 -6.828125 C 11.707031 -6.003906 13.082031 -5.59375 14.71875 -5.59375 C 17.0625 -5.59375 18.832031 -6.394531 20.03125 -8 C 21.226562 -9.613281 21.828125 -11.5625 21.828125 -13.84375 C 21.828125 -16.101562 21.21875 -18.039062 20 -19.65625 C 18.78125 -21.28125 17.019531 -22.09375 14.71875 -22.09375 C 12.4375 -22.09375 10.675781 -21.28125 9.4375 -19.65625 C 8.195312 -18.039062 7.578125 -16.101562 7.578125 -13.84375 Z M 7.578125 -13.84375 "/></g></g></g><g fill="#e1efed" fill-opacity="1"><g transform="translate(212.798993, 40.396229)"><g><path d="M 27.03125 -15.484375 L 27.03125 -9.484375 C 26.3125 -6.203125 24.742188 -3.71875 22.328125 -2.03125 C 19.910156 -0.34375 17.21875 0.5 14.25 0.5 C 10.519531 0.5 7.335938 -0.894531 4.703125 -3.6875 C 2.078125 -6.476562 0.765625 -9.851562 0.765625 -13.8125 C 0.765625 -17.832031 2.050781 -21.226562 4.625 -24 C 7.195312 -26.78125 10.40625 -28.171875 14.25 -28.171875 C 18.738281 -28.171875 22.289062 -26.59375 24.90625 -23.4375 L 20.796875 -18.90625 C 19.316406 -21.28125 17.257812 -22.46875 14.625 -22.46875 C 12.675781 -22.46875 11.015625 -21.625 9.640625 -19.9375 C 8.265625 -18.25 7.578125 -16.207031 7.578125 -13.8125 C 7.578125 -11.46875 8.265625 -9.460938 9.640625 -7.796875 C 11.015625 -6.128906 12.675781 -5.296875 14.625 -5.296875 C 16.226562 -5.296875 17.628906 -5.78125 18.828125 -6.75 C 20.023438 -7.726562 20.625 -9.019531 20.625 -10.625 L 14.25 -10.625 L 14.25 -15.484375 Z M 27.03125 -15.484375 "/></g></g></g><g fill="#df1e86" fill-opacity="1"><g transform="translate(133.839937, 70.368242)"><g><path d="M 8.3125 -27.65625 L 8.3125 -5.53125 L 17.84375 -5.53125 L 17.84375 0 L 2.015625 0 L 2.015625 -27.65625 Z M 8.3125 -27.65625 "/></g></g></g><g fill="#df1e86" fill-opacity="1"><g transform="translate(152.175018, 70.368242)"><g><path d="M 8.3125 -27.65625 L 8.3125 0 L 2.015625 0 L 2.015625 -27.65625 Z M 8.3125 -27.65625 "/></g></g></g><g fill="#df1e86" fill-opacity="1"><g transform="translate(161.895568, 70.368242)"><g><path d="M 8.3125 -17.171875 L 8.3125 0 L 2.015625 0 L 2.015625 -27.65625 L 8.3125 -27.65625 L 19.3125 -10.5 L 19.375 -10.5 L 19.375 -27.65625 L 25.6875 -27.65625 L 25.6875 0 L 19.375 0 L 8.375 -17.171875 Z M 8.3125 -17.171875 "/></g></g></g><g fill="#df1e86" fill-opacity="1"><g transform="translate(188.979255, 70.368242)"><g><path d="M 23.265625 -27.65625 L 23.265625 -9.828125 C 23.265625 -6.429688 22.347656 -3.859375 20.515625 -2.109375 C 18.679688 -0.367188 16 0.5 12.46875 0.5 C 8.9375 0.5 6.253906 -0.367188 4.421875 -2.109375 C 2.585938 -3.859375 1.671875 -6.429688 1.671875 -9.828125 L 1.671875 -27.65625 L 7.984375 -27.65625 L 7.984375 -11.671875 C 7.984375 -9.429688 8.332031 -7.875 9.03125 -7 C 9.738281 -6.132812 10.882812 -5.703125 12.46875 -5.703125 C 14.0625 -5.703125 15.207031 -6.132812 15.90625 -7 C 16.613281 -7.875 16.96875 -9.429688 16.96875 -11.671875 L 16.96875 -27.65625 Z M 23.265625 -27.65625 "/></g></g></g><g fill="#df1e86" fill-opacity="1"><g transform="translate(213.314343, 70.368242)"><g><path d="M 27.890625 0 L 19.75 0 L 13.21875 -9.421875 L 6.671875 0 L -1.140625 0 L 9.328125 -14.890625 L 0.609375 -27.65625 L 8.109375 -27.65625 L 13.21875 -20.125 L 18.3125 -27.65625 L 26.15625 -27.65625 L 17.09375 -14.890625 Z M 27.890625 0 "/></g></g></g></svg>